<svg xmlns="http://www.w3.org/2000/svg"  viewBox="0 0 72 72" width="64px" height="64px"><path d="M 36 12 C 22.745 12 12 22.745 12 36 C 12 49.255 22.745 60 36 60 C 49.255 60 60 49.255 60 36 C 60 22.745 49.255 12 36 12 z M 36 20 C 44.837 20 52 27.163 52 36 C 52 43.934776 46.21906 50.501745 38.642578 51.763672 L 38.642578 42.275391 L 43.318359 42.275391 L 44.019531 36.699219 L 38.642578 36.699219 L 38.642578 32.794922 C 38.642578 31.247922 39.687828 30.453125 40.798828 30.453125 C 41.909828 30.453125 44.207031 30.421875 44.207031 30.421875 L 44.207031 25.433594 C 44.207031 25.433594 42.161266 25.195312 40.072266 25.195312 C 38.317266 25.195312 36.383938 25.690203 34.835938 27.283203 C 33.260938 28.902203 33.035156 31.294891 33.035156 34.212891 L 33.035156 36.699219 L 28.347656 36.699219 L 28.347656 42.277344 L 33.035156 42.277344 L 33.035156 51.714844 C 25.616642 50.323269 20 43.8227 20 36 C 20 27.163 27.163 20 36 20 z"/></svg>