<svg width="159" height="45" viewBox="0 0 159 45" fill="none" xmlns="http://www.w3.org/2000/svg">
<path d="M6.64001 5.77563L2.82432 8.18578C2.06488 8.66482 1.43807 9.33293 1.00313 10.127C0.568193 10.921 0.33949 11.8147 0.338637 12.7237V26.2586C0.318825 28.1868 0.693762 30.0981 1.4396 31.8709C2.18544 33.6437 3.28584 35.2392 4.67083 36.5559C7.04178 38.7207 10.1401 39.8755 13.3248 39.7813C16.5095 39.6872 19.5367 38.3514 21.7801 36.0503C23.206 34.5848 24.3326 32.8467 25.095 30.9362C25.8573 29.0257 26.2404 26.9807 26.222 24.9189V2.341L10.9722 12.9076V23.1655C10.9722 24.6256 11.542 26.0261 12.5565 27.0592C13.5709 28.0923 14.9471 28.6736 16.3826 28.6753V15.738L20.4178 13.1834V26.4162C20.4295 28.216 19.7642 29.9522 18.5584 31.2694C16.8475 33.1279 14.0389 34.9667 10.6365 32.8389C9.39683 32.0393 8.37887 30.9304 7.67937 29.6177C6.97987 28.305 6.62208 26.8322 6.64001 25.3392V5.70995" fill="white"/>
<path d="M41.1367 12.3224H44.4876V22.9481C44.4876 26.8095 42.1504 28.7994 38.0312 28.7994C34.2349 28.7994 31.8525 26.9737 31.8525 23.1385V12.3224H35.1775V22.8299C35.1775 24.8 36.217 26.0478 37.986 26.0478C40.0843 26.0478 41.1174 25.0364 41.1174 22.9546L41.1367 12.3224Z" fill="white"/>
<path d="M55.4246 28.2476L48.7294 17.5497V28.2476H45.6885V12.3223H49.1555L55.3794 22.5605V12.3223H58.4397V28.2476H55.4246Z" fill="white"/>
<path d="M63.8889 28.2469V15.1126H59.1758V12.3281H71.9012V15.1126H67.1622V28.2469H63.8889Z" fill="white"/>
<path d="M71.7529 20.4076C71.7529 15.0159 74.4646 11.7783 79.2745 11.7783C84.0845 11.7783 86.751 15.0159 86.751 20.4798C86.751 25.9437 84.0845 28.7807 79.2745 28.7807C74.4646 28.7807 71.7529 25.7992 71.7529 20.4076ZM83.5228 20.4798C83.5228 16.7168 82.012 14.727 79.2745 14.727C76.5371 14.727 74.9875 16.6971 74.9875 20.4798C74.9875 24.2625 76.5629 25.924 79.2745 25.924C81.6376 25.9437 83.5293 24.2625 83.5293 20.4995L83.5228 20.4798Z" fill="white"/>
<path d="M87.7451 28.2476V12.3223H91.0249V25.345H98.7725V28.2476H87.7451Z" fill="white"/>
<path d="M99.5596 28.2476V12.3223H105.616C109.857 12.3223 112.879 15.2709 112.879 20.1175C112.879 24.9641 110.167 28.2476 106.113 28.2476H99.5596ZM105.448 25.5354C108.301 25.5354 109.528 23.7097 109.528 20.1175C109.528 16.5252 108.301 15.0805 105.17 15.0805H102.743V25.5354H105.448Z" fill="white"/>
<path d="M127.658 22.7762C127.012 26.3947 124.546 28.7983 120.917 28.7983C116.811 28.7983 113.68 25.9416 113.68 20.4777C113.68 15.0138 116.482 11.7959 120.962 11.7959C124.875 11.7959 127.354 14.3374 127.658 17.5487H124.378C124.22 16.7478 123.798 16.0259 123.182 15.5026C122.565 14.9794 121.791 14.6864 120.988 14.6723C118.277 14.6723 117.005 16.8066 117.005 20.2807C117.005 23.7547 118.296 25.8956 120.82 25.8956C122.757 25.8956 123.932 24.766 124.378 22.7762H127.658Z" fill="white"/>
<path d="M128.316 28.2476V12.3223H131.596V28.2476H128.316Z" fill="white"/>
<path d="M142.463 28.2476L135.767 17.5497V28.2476H132.727V12.3223H136.194L142.418 22.5605V12.3223H145.478V28.2476H142.463Z" fill="white"/>
<path d="M146.646 28.2478V12.3224H158.151V15.1069H149.874V18.5087H157.537V21.3128H149.874V25.4173H158.57V28.2478H146.646Z" fill="white"/>
</svg>
