<svg xmlns="http://www.w3.org/2000/svg" width="159" height="44" viewBox="0 0 159 44" fill="none">
  <path d="M6.64001 5.72759L2.82432 8.13774C2.06488 8.61679 1.43807 9.2849 1.00313 10.0789C0.568193 10.873 0.33949 11.7667 0.338637 12.6757V26.2106C0.318825 28.1388 0.693762 30.0501 1.4396 31.8229C2.18544 33.5957 3.28584 35.1912 4.67083 36.5079C7.04178 38.6726 10.1401 39.8274 13.3248 39.7333C16.5095 39.6392 19.5367 38.3034 21.7801 36.0022C23.206 34.5367 24.3326 32.7987 25.095 30.8882C25.8573 28.9777 26.2404 26.9326 26.222 24.8709V2.29297L10.9722 12.8595V23.1174C10.9722 24.5776 11.542 25.9781 12.5565 27.0112C13.5709 28.0443 14.9471 28.6256 16.3826 28.6273V15.69L20.4178 13.1354V26.3682C20.4295 28.168 19.7642 29.9042 18.5584 31.2213C16.8475 33.0798 14.0389 34.9186 10.6365 32.7909C9.39683 31.9912 8.37887 30.8824 7.67937 29.5697C6.97987 28.257 6.62208 26.7842 6.64001 25.2912V5.66192" fill="white"/>
  <path d="M41.1367 12.2744H44.4876V22.9001C44.4876 26.7616 42.1504 28.7514 38.0312 28.7514C34.2349 28.7514 31.8525 26.9258 31.8525 23.0905V12.2744H35.1775V22.7819C35.1775 24.752 36.217 25.9998 37.986 25.9998C40.0843 25.9998 41.1174 24.9884 41.1174 22.9067L41.1367 12.2744Z" fill="white"/>
  <path d="M55.4246 28.1998L48.7294 17.5019V28.1998H45.6885V12.2744H49.1555L55.3794 22.5126V12.2744H58.4397V28.1998H55.4246Z" fill="white"/>
  <path d="M63.8889 28.1991V15.0648H59.1758V12.2803H71.9012V15.0648H67.1622V28.1991H63.8889Z" fill="white"/>
  <path d="M71.7529 20.3597C71.7529 14.9681 74.4646 11.7305 79.2745 11.7305C84.0845 11.7305 86.751 14.9681 86.751 20.432C86.751 25.8958 84.0845 28.7329 79.2745 28.7329C74.4646 28.7329 71.7529 25.7514 71.7529 20.3597ZM83.5228 20.432C83.5228 16.669 82.012 14.6791 79.2745 14.6791C76.5371 14.6791 74.9875 16.6493 74.9875 20.432C74.9875 24.2146 76.5629 25.8761 79.2745 25.8761C81.6376 25.8958 83.5293 24.2146 83.5293 20.4517L83.5228 20.432Z" fill="white"/>
  <path d="M87.7451 28.1998V12.2744H91.0249V25.2971H98.7725V28.1998H87.7451Z" fill="white"/>
  <path d="M99.5596 28.1998V12.2744H105.616C109.857 12.2744 112.879 15.2231 112.879 20.0696C112.879 24.9162 110.167 28.1998 106.113 28.1998H99.5596ZM105.448 25.4875C108.301 25.4875 109.528 23.6619 109.528 20.0696C109.528 16.4774 108.301 15.0326 105.17 15.0326H102.743V25.4875H105.448Z" fill="white"/>
  <path d="M127.658 22.7283C127.012 26.3469 124.546 28.7504 120.917 28.7504C116.811 28.7504 113.68 25.8937 113.68 20.4298C113.68 14.966 116.482 11.748 120.962 11.748C124.875 11.748 127.354 14.2895 127.658 17.5009H124.378C124.22 16.7 123.798 15.978 123.182 15.4548C122.565 14.9316 121.791 14.6386 120.988 14.6245C118.277 14.6245 117.005 16.7588 117.005 20.2328C117.005 23.7069 118.296 25.8477 120.82 25.8477C122.757 25.8477 123.932 24.7182 124.378 22.7283H127.658Z" fill="white"/>
  <path d="M128.316 28.1998V12.2744H131.596V28.1998H128.316Z" fill="white"/>
  <path d="M142.463 28.1998L135.767 17.5019V28.1998H132.727V12.2744H136.194L142.418 22.5126V12.2744H145.478V28.1998H142.463Z" fill="white"/>
  <path d="M146.646 28.1998V12.2744H158.151V15.0589H149.874V18.4607H157.537V21.2649H149.874V25.3693H158.57V28.1998H146.646Z" fill="white"/>
</svg>